<svg width="110" height="110" viewBox="0 0 110 110" fill="none" xmlns="http://www.w3.org/2000/svg">
<path d="M57.321 0L7.755 35.013L22.022 49.28L57.321 24.343V0Z" fill="url(#paint0_linear_426_1676)"/>
<path d="M22.022 49.28L30.558 57.816V43.252L22.022 49.28Z" fill="url(#paint1_linear_426_1676)"/>
<path d="M52.679 70.026L102.245 35.013L87.978 20.746L52.679 45.683V70.026Z" fill="url(#paint2_linear_426_1676)"/>
<path d="M87.978 20.746L79.442 12.21V26.774L87.978 20.746Z" fill="url(#paint3_linear_426_1676)"/>
<path d="M2.849 95.656C2.002 95.304 1.32 94.787 0.803 94.105C0.297 93.423 0.022 92.598 0 91.63H3.817C3.872 92.18 4.059 92.587 4.378 92.873C4.697 93.159 5.115 93.302 5.632 93.302C6.16 93.302 6.578 93.181 6.886 92.939C7.194 92.697 7.348 92.356 7.348 91.927C7.348 91.564 7.227 91.267 6.985 91.025C6.743 90.783 6.435 90.596 6.083 90.442C5.731 90.288 5.225 90.112 4.565 89.914C3.619 89.617 2.838 89.331 2.244 89.034C1.639 88.737 1.122 88.308 0.693 87.736C0.264 87.164 0.044 86.416 0.044 85.492C0.044 84.128 0.539 83.05 1.529 82.28C2.519 81.51 3.817 81.114 5.401 81.114C7.018 81.114 8.327 81.499 9.317 82.28C10.307 83.061 10.835 84.139 10.912 85.514H7.04C7.007 85.041 6.842 84.667 6.512 84.392C6.193 84.117 5.775 83.985 5.28 83.985C4.851 83.985 4.499 84.095 4.235 84.326C3.971 84.557 3.839 84.887 3.839 85.316C3.839 85.789 4.059 86.163 4.51 86.427C4.961 86.691 5.654 86.977 6.6 87.285C7.546 87.604 8.316 87.912 8.91 88.209C9.504 88.506 10.021 88.924 10.45 89.485C10.879 90.046 11.099 90.761 11.099 91.641C11.099 92.477 10.89 93.236 10.461 93.929C10.032 94.611 9.416 95.161 8.602 95.568C7.788 95.975 6.831 96.173 5.731 96.173C4.664 96.184 3.696 96.008 2.849 95.656Z" fill="white"/>
<path d="M23.914 88.407C23.518 89.111 22.924 89.683 22.11 90.112C21.296 90.541 20.295 90.761 19.096 90.761H16.874V96.041H13.288V81.334H19.085C20.262 81.334 21.252 81.532 22.055 81.939C22.869 82.346 23.474 82.907 23.881 83.611C24.288 84.326 24.486 85.14 24.486 86.064C24.508 86.922 24.31 87.692 23.914 88.407ZM20.361 87.428C20.691 87.109 20.867 86.658 20.867 86.064C20.867 85.481 20.702 85.019 20.361 84.7C20.031 84.381 19.514 84.216 18.832 84.216H16.885V87.901H18.832C19.514 87.912 20.02 87.747 20.361 87.428Z" fill="white"/>
<path d="M29.953 93.269H34.65V96.03H26.378V81.334H29.964V93.269H29.953Z" fill="white"/>
<path d="M39.941 81.334V96.041H36.355V81.334H39.941Z" fill="white"/>
<path d="M53.119 81.334V84.205H49.225V96.041H45.639V84.205H41.745V81.334H53.119Z" fill="white"/>
<path d="M70.312 89.76C70.829 90.42 71.082 91.179 71.082 92.037C71.082 93.269 70.653 94.237 69.795 94.963C68.937 95.678 67.738 96.041 66.198 96.041H59.345V81.334H65.967C67.463 81.334 68.629 81.675 69.476 82.357C70.323 83.039 70.741 83.974 70.741 85.14C70.741 86.009 70.51 86.724 70.059 87.296C69.608 87.868 69.003 88.264 68.244 88.495C69.113 88.682 69.795 89.1 70.312 89.76ZM62.942 87.285H65.285C65.868 87.285 66.319 87.153 66.638 86.9C66.946 86.647 67.111 86.262 67.111 85.756C67.111 85.25 66.957 84.865 66.638 84.601C66.319 84.337 65.868 84.205 65.285 84.205H62.942V87.285ZM66.968 92.741C67.298 92.466 67.463 92.07 67.463 91.553C67.463 91.036 67.287 90.629 66.946 90.343C66.605 90.046 66.132 89.903 65.538 89.903H62.942V93.148H65.582C66.176 93.148 66.638 93.005 66.968 92.741Z" fill="white"/>
<path d="M76.736 81.334V96.041H73.15V81.334H76.736Z" fill="white"/>
<path d="M82.918 93.269H87.615V96.03H79.343V81.334H82.929V93.269H82.918Z" fill="white"/>
<path d="M92.906 93.269H97.603V96.03H89.331V81.334H92.917V93.269H92.906Z" fill="white"/>
<path d="M101.75 95.656C100.903 95.304 100.221 94.787 99.704 94.105C99.198 93.423 98.923 92.598 98.901 91.63H102.718C102.773 92.18 102.96 92.587 103.279 92.873C103.598 93.159 104.016 93.302 104.533 93.302C105.061 93.302 105.479 93.181 105.787 92.939C106.095 92.697 106.249 92.356 106.249 91.927C106.249 91.564 106.128 91.267 105.886 91.025C105.644 90.783 105.336 90.596 104.984 90.442C104.632 90.288 104.126 90.112 103.466 89.914C102.52 89.617 101.739 89.331 101.145 89.034C100.54 88.737 100.023 88.308 99.594 87.736C99.165 87.164 98.945 86.416 98.945 85.492C98.945 84.128 99.44 83.05 100.43 82.28C101.42 81.51 102.718 81.114 104.302 81.114C105.919 81.114 107.228 81.499 108.218 82.28C109.208 83.05 109.736 84.139 109.813 85.514H105.941C105.908 85.041 105.743 84.667 105.413 84.392C105.094 84.117 104.676 83.985 104.181 83.985C103.752 83.985 103.4 84.095 103.136 84.326C102.872 84.557 102.74 84.887 102.74 85.316C102.74 85.789 102.96 86.163 103.411 86.427C103.862 86.691 104.555 86.977 105.501 87.285C106.447 87.604 107.217 87.912 107.811 88.209C108.405 88.506 108.922 88.924 109.351 89.485C109.78 90.046 110 90.761 110 91.641C110 92.477 109.791 93.236 109.362 93.929C108.933 94.611 108.317 95.161 107.503 95.568C106.689 95.975 105.732 96.173 104.632 96.173C103.565 96.184 102.597 96.008 101.75 95.656Z" fill="white"/>
<path d="M22.627 105.457V108.779C22.627 109.153 22.517 109.45 22.286 109.67C22.055 109.89 21.758 110 21.384 110C21.01 110 20.702 109.89 20.471 109.659C20.24 109.428 20.13 109.12 20.13 108.735H20.713C20.713 108.955 20.779 109.131 20.889 109.274C20.999 109.417 21.164 109.483 21.384 109.483C21.604 109.483 21.769 109.417 21.879 109.285C21.989 109.153 22.044 108.988 22.044 108.79V105.468H22.627V105.457Z" fill="white"/>
<path d="M25.124 105.457V108.306C25.124 108.702 25.223 108.999 25.421 109.197C25.619 109.395 25.894 109.483 26.235 109.483C26.576 109.483 26.851 109.384 27.049 109.197C27.247 109.01 27.346 108.702 27.346 108.306V105.457H27.929V108.295C27.929 108.669 27.852 108.988 27.698 109.241C27.544 109.494 27.346 109.692 27.093 109.813C26.84 109.934 26.554 110 26.235 110C25.916 110 25.63 109.934 25.377 109.813C25.124 109.692 24.915 109.494 24.772 109.241C24.618 108.988 24.552 108.669 24.552 108.295V105.457H25.124Z" fill="white"/>
<path d="M30.305 109.846C30.074 109.736 29.887 109.593 29.755 109.406C29.623 109.219 29.557 108.999 29.546 108.757H30.173C30.195 108.966 30.283 109.142 30.437 109.285C30.591 109.428 30.811 109.505 31.108 109.505C31.383 109.505 31.603 109.439 31.768 109.296C31.933 109.153 32.01 108.977 32.01 108.757C32.01 108.581 31.966 108.449 31.867 108.339C31.768 108.229 31.658 108.152 31.515 108.097C31.372 108.042 31.185 107.976 30.943 107.921C30.646 107.844 30.404 107.767 30.228 107.69C30.052 107.613 29.898 107.492 29.766 107.327C29.634 107.162 29.579 106.942 29.579 106.656C29.579 106.414 29.645 106.194 29.766 106.007C29.887 105.82 30.063 105.666 30.294 105.567C30.514 105.468 30.778 105.413 31.075 105.413C31.493 105.413 31.845 105.523 32.109 105.732C32.373 105.941 32.527 106.227 32.56 106.568H31.911C31.889 106.392 31.801 106.249 31.636 106.117C31.482 105.985 31.262 105.919 31.009 105.919C30.767 105.919 30.569 105.985 30.404 106.106C30.25 106.238 30.173 106.414 30.173 106.634C30.173 106.799 30.217 106.931 30.316 107.03C30.404 107.129 30.525 107.217 30.657 107.261C30.789 107.316 30.987 107.371 31.229 107.448C31.526 107.525 31.768 107.613 31.944 107.69C32.12 107.767 32.274 107.888 32.406 108.053C32.538 108.218 32.604 108.438 32.604 108.724C32.604 108.944 32.549 109.153 32.428 109.34C32.307 109.527 32.142 109.692 31.911 109.813C31.68 109.934 31.416 109.989 31.108 109.989C30.811 110 30.547 109.945 30.305 109.846Z" fill="white"/>
<path d="M37.015 105.457V105.93H35.794V109.945H35.2V105.93H33.968V105.457H37.015Z" fill="white"/>
<path d="M43.549 105.457V105.93H41.591V107.448H43.175V107.921H41.591V109.945H41.008V105.446H43.549V105.457Z" fill="white"/>
<path d="M45.925 109.703C45.584 109.505 45.309 109.23 45.111 108.878C44.913 108.526 44.814 108.13 44.814 107.69C44.814 107.25 44.913 106.854 45.111 106.502C45.309 106.15 45.584 105.875 45.925 105.677C46.266 105.479 46.651 105.38 47.069 105.38C47.487 105.38 47.872 105.479 48.213 105.677C48.554 105.875 48.829 106.15 49.027 106.491C49.225 106.832 49.324 107.239 49.324 107.679C49.324 108.119 49.225 108.515 49.027 108.867C48.829 109.219 48.554 109.483 48.213 109.681C47.872 109.879 47.487 109.978 47.069 109.978C46.651 110 46.266 109.901 45.925 109.703ZM47.916 109.274C48.169 109.131 48.367 108.922 48.51 108.647C48.653 108.372 48.73 108.064 48.73 107.701C48.73 107.338 48.653 107.03 48.51 106.755C48.367 106.491 48.169 106.282 47.916 106.128C47.663 105.985 47.388 105.908 47.069 105.908C46.75 105.908 46.464 105.985 46.222 106.128C45.969 106.271 45.771 106.48 45.628 106.755C45.485 107.019 45.408 107.338 45.408 107.701C45.408 108.053 45.485 108.372 45.628 108.647C45.771 108.922 45.969 109.131 46.222 109.274C46.475 109.417 46.761 109.494 47.069 109.494C47.377 109.494 47.663 109.417 47.916 109.274Z" fill="white"/>
<path d="M53.24 109.956L52.173 108.119H51.458V109.956H50.875V105.457H52.327C52.668 105.457 52.954 105.512 53.185 105.633C53.416 105.754 53.592 105.908 53.713 106.106C53.834 106.304 53.889 106.535 53.889 106.788C53.889 107.096 53.801 107.371 53.625 107.602C53.449 107.844 53.174 107.998 52.822 108.075L53.955 109.956H53.24ZM51.458 107.646H52.327C52.646 107.646 52.888 107.569 53.042 107.415C53.196 107.261 53.284 107.052 53.284 106.788C53.284 106.524 53.207 106.315 53.053 106.172C52.899 106.029 52.657 105.952 52.338 105.952H51.469V107.646H51.458Z" fill="white"/>
<path d="M58.146 106.524C58.344 106.172 58.619 105.897 58.96 105.699C59.301 105.501 59.686 105.402 60.104 105.402C60.599 105.402 61.017 105.523 61.391 105.754C61.754 105.996 62.029 106.326 62.194 106.766H61.49C61.369 106.491 61.182 106.282 60.951 106.139C60.72 105.996 60.434 105.919 60.104 105.919C59.785 105.919 59.51 105.996 59.257 106.139C59.004 106.282 58.806 106.491 58.674 106.766C58.531 107.03 58.465 107.349 58.465 107.712C58.465 108.064 58.531 108.383 58.674 108.647C58.817 108.911 59.015 109.12 59.257 109.274C59.51 109.417 59.785 109.494 60.104 109.494C60.434 109.494 60.709 109.417 60.951 109.274C61.182 109.131 61.369 108.922 61.49 108.647H62.194C62.029 109.076 61.754 109.406 61.391 109.648C61.028 109.879 60.599 110 60.104 110C59.686 110 59.312 109.901 58.96 109.703C58.619 109.505 58.344 109.23 58.146 108.889C57.948 108.537 57.849 108.152 57.849 107.712C57.849 107.261 57.948 106.865 58.146 106.524Z" fill="white"/>
<path d="M64.724 109.703C64.383 109.505 64.108 109.23 63.91 108.878C63.712 108.526 63.613 108.13 63.613 107.69C63.613 107.25 63.712 106.854 63.91 106.502C64.108 106.15 64.383 105.875 64.724 105.677C65.065 105.479 65.45 105.38 65.868 105.38C66.286 105.38 66.671 105.479 67.012 105.677C67.353 105.875 67.628 106.15 67.826 106.491C68.024 106.832 68.123 107.239 68.123 107.679C68.123 108.119 68.024 108.515 67.826 108.867C67.628 109.219 67.353 109.483 67.012 109.681C66.671 109.879 66.286 109.978 65.868 109.978C65.439 110 65.065 109.901 64.724 109.703ZM66.715 109.274C66.968 109.131 67.166 108.922 67.309 108.647C67.452 108.372 67.529 108.064 67.529 107.701C67.529 107.338 67.452 107.03 67.309 106.755C67.166 106.491 66.968 106.282 66.715 106.128C66.462 105.985 66.187 105.908 65.868 105.908C65.549 105.908 65.263 105.985 65.021 106.128C64.768 106.271 64.57 106.48 64.427 106.755C64.284 107.019 64.207 107.338 64.207 107.701C64.207 108.053 64.284 108.372 64.427 108.647C64.57 108.922 64.768 109.131 65.021 109.274C65.274 109.417 65.56 109.494 65.868 109.494C66.176 109.494 66.462 109.417 66.715 109.274Z" fill="white"/>
<path d="M70.246 105.457V108.306C70.246 108.702 70.345 108.999 70.543 109.197C70.741 109.395 71.016 109.483 71.357 109.483C71.698 109.483 71.973 109.384 72.171 109.197C72.369 108.999 72.468 108.702 72.468 108.306V105.457H73.051V108.295C73.051 108.669 72.974 108.988 72.82 109.241C72.666 109.494 72.468 109.692 72.215 109.813C71.962 109.934 71.676 110 71.357 110C71.038 110 70.752 109.934 70.499 109.813C70.246 109.692 70.037 109.494 69.894 109.241C69.751 108.988 69.674 108.669 69.674 108.295V105.457H70.246Z" fill="white"/>
<path d="M77.418 107.712C77.165 107.965 76.769 108.086 76.252 108.086H75.383V109.967H74.8V105.468H76.252C76.758 105.468 77.143 105.589 77.407 105.831C77.671 106.073 77.803 106.392 77.803 106.777C77.803 107.151 77.671 107.459 77.418 107.712ZM76.967 107.382C77.121 107.239 77.198 107.041 77.198 106.777C77.198 106.227 76.879 105.941 76.241 105.941H75.372V107.591H76.241C76.571 107.591 76.813 107.525 76.967 107.382Z" fill="white"/>
<path d="M79.893 109.483H81.466V109.956H79.31V105.457H79.893V109.483Z" fill="white"/>
<path d="M83.457 105.941V107.448H85.096V107.932H83.457V109.483H85.294V109.967H82.874V105.468H85.294V105.952H83.457V105.941Z" fill="white"/>
<path d="M87.582 109.846C87.351 109.736 87.164 109.593 87.032 109.406C86.9 109.219 86.834 108.999 86.823 108.757H87.45C87.472 108.966 87.56 109.142 87.714 109.285C87.868 109.428 88.088 109.505 88.385 109.505C88.66 109.505 88.88 109.439 89.045 109.296C89.21 109.153 89.287 108.977 89.287 108.757C89.287 108.581 89.243 108.449 89.144 108.339C89.045 108.229 88.935 108.152 88.792 108.097C88.649 108.042 88.462 107.976 88.22 107.921C87.923 107.844 87.681 107.767 87.505 107.69C87.329 107.613 87.175 107.492 87.043 107.327C86.911 107.162 86.856 106.942 86.856 106.656C86.856 106.414 86.922 106.194 87.043 106.007C87.164 105.82 87.34 105.666 87.571 105.567C87.802 105.468 88.055 105.413 88.352 105.413C88.77 105.413 89.122 105.523 89.386 105.732C89.65 105.941 89.804 106.227 89.837 106.568H89.188C89.166 106.392 89.078 106.249 88.913 106.117C88.759 105.985 88.539 105.919 88.286 105.919C88.044 105.919 87.835 105.985 87.681 106.106C87.527 106.238 87.45 106.414 87.45 106.634C87.45 106.799 87.494 106.931 87.593 107.03C87.681 107.129 87.802 107.217 87.934 107.261C88.066 107.316 88.264 107.371 88.506 107.448C88.803 107.525 89.045 107.613 89.221 107.69C89.397 107.767 89.562 107.888 89.683 108.053C89.815 108.218 89.881 108.438 89.881 108.724C89.881 108.944 89.826 109.153 89.705 109.34C89.584 109.538 89.419 109.692 89.188 109.813C88.957 109.934 88.693 109.989 88.385 109.989C88.077 110 87.813 109.945 87.582 109.846Z" fill="white"/>
<defs>
<linearGradient id="paint0_linear_426_1676" x1="12.1675" y1="45.5352" x2="51.2842" y2="15.0859" gradientUnits="userSpaceOnUse">
<stop offset="0.00351356" stop-color="#401886"/>
<stop offset="0.2516" stop-color="#352286"/>
<stop offset="0.6806" stop-color="#193E88"/>
<stop offset="1" stop-color="#005789"/>
</linearGradient>
<linearGradient id="paint1_linear_426_1676" x1="14.4413" y1="43.2456" x2="37.6368" y2="53.736" gradientUnits="userSpaceOnUse">
<stop stop-color="#23001F"/>
<stop offset="0.9988" stop-color="#401886"/>
</linearGradient>
<linearGradient id="paint2_linear_426_1676" x1="64.2214" y1="49.6415" x2="104.891" y2="21.2994" gradientUnits="userSpaceOnUse">
<stop offset="0.00117807" stop-color="#B5BFAE"/>
<stop offset="0.9895" stop-color="#6ABFAE"/>
</linearGradient>
<linearGradient id="paint3_linear_426_1676" x1="74.4197" y1="12.8346" x2="83.6082" y2="23.6361" gradientUnits="userSpaceOnUse">
<stop stop-color="#6ABFAE"/>
<stop offset="1" stop-color="#45A4AE"/>
</linearGradient>
</defs>
</svg>
